<svg height="64" width="64" xmlns="http://www.w3.org/2000/svg">
  <circle cx="32" cy="32" r="4.17"/>
  <path d="M55.2 27.87l-5.83-1.1c-.36-1.17-.82-2.3-1.4-3.36l3.37-4.93c.32-.46.25-1.14-.14-1.53l-4.15-4.16c-.4-.39-1.08-.45-1.54-.14l-4.92 3.37a18.02 18.02 0 00-3.48-1.42l-1.08-5.8c-.1-.54-.63-.98-1.19-.98h-5.87c-.56 0-1.09.44-1.19.99l-1.1 5.85c-1.16.35-2.28.82-3.33 1.39l-4.87-3.33a1.25 1.25 0 00-1.53.14l-4.15 4.16c-.4.4-.46 1.08-.15 1.53l3.35 4.9a18.06 18.06 0 00-1.37 3.33l-5.82 1.09c-.54.1-.98.63-.98 1.19v5.87c0 .56.44 1.08.98 1.19l5.82 1.09c.35 1.19.82 2.33 1.4 3.4l-3.31 4.84c-.32.46-.25 1.14.14 1.53l4.16 4.16c.39.39 1.07.45 1.53.14l4.84-3.31c1.04.56 2.14 1.02 3.3 1.37l1.1 5.85c.1.55.63.99 1.18.99h5.88c.55 0 1.08-.44 1.18-.99l1.09-5.8c1.2-.35 2.35-.81 3.43-1.4l4.9 3.36c.46.31 1.15.25 1.54-.14l4.15-4.16c.4-.39.46-1.07.15-1.53l-3.34-4.87a18.02 18.02 0 001.42-3.44l5.82-1.1c.55-.1.99-.62.99-1.18v-5.87c0-.56-.45-1.09-.99-1.19zM32 42.08a10.08 10.08 0 110-20.16 10.08 10.08 0 010 20.16z"/>
</svg>
